<svg width="54" height="54" viewBox="0 0 54 54" fill="none" xmlns="http://www.w3.org/2000/svg">
<path d="M27 2.07361C13.2332 2.07361 2.07361 13.2332 2.07361 27C2.07361 40.7668 13.2332 51.9264 27 51.9264C40.7668 51.9264 51.9264 40.7668 51.9264 27C51.9264 13.2332 40.7668 2.07361 27 2.07361ZM35.174 28.3889C34.1728 28.3721 33.2575 28.4013 32.0938 28.3511C31.9048 28.3424 28.8738 28.3878 28.883 28.4429C29.1033 29.7907 28.7869 31.2228 28.8058 32.5858C28.8171 33.3801 29.0504 40.5664 28.9429 43.2173L22.9365 43.2724C22.9117 41.0152 23.0218 38.6937 22.9241 35.7167C22.9041 35.1049 22.8841 28.6637 22.8128 28.3246C22.8128 28.3246 20.1582 28.3435 18.9173 28.3511C18.9173 28.3511 18.9005 25.974 18.9005 25.1699C18.9005 24.3799 18.9005 23.591 18.9005 22.801C18.9005 22.801 21.9991 22.6292 22.8884 22.552C22.8884 22.552 22.9792 19.5367 23.1023 18.5598C23.2443 17.4442 23.2583 16.3166 23.9134 15.3295C25.1138 13.5227 26.2985 11.9302 28.5055 11.4502C29.3404 11.2676 34.8457 10.1855 35.0498 11.0759L34.9245 16.4371C33.4276 16.4371 31.6337 16.2853 30.1061 17.4199C29.2556 18.0527 29.0207 18.5798 28.9348 19.6209C28.8835 20.2262 28.8716 22.6762 28.8716 22.6762C29.6784 22.7912 30.8723 22.7405 31.7396 22.6762C32.7191 22.6033 35.2339 22.8631 35.2339 22.8631C35.2328 24.4847 35.168 28.2285 35.174 28.3889Z" fill="white"/>
</svg>
