<svg width="76" height="76" viewBox="0 0 76 76" fill="none" xmlns="http://www.w3.org/2000/svg">
<g clip-path="url(#clip0_8_8)">
<path fill-rule="evenodd" clip-rule="evenodd" d="M51.8015 25.5203C50.6188 24.4834 48.9178 24.5071 47.9418 24.8083C48.5813 24.0232 50.0701 23.3795 50.5091 23.3014C50.8433 23.4267 51.8013 24.4115 51.8013 25.5202L51.8015 25.5203ZM55.5777 21.2266C54.7999 17.066 45.1305 19.8227 40.261 18.0555C40.1676 19.2683 41.76 21.2118 43.2833 21.9311C40.6795 24.1907 38.342 28.7434 37.8703 34.3056C37.4001 28.7434 35.0624 24.1907 32.4588 21.9311C33.9819 21.2118 35.5756 19.2683 35.4811 18.0555C30.6116 19.8227 20.942 17.066 20.1629 21.2266C19.999 22.1071 20.4226 23.4491 20.8804 23.8348C20.9622 23.5558 21.3897 22.6429 22.7376 22.4383C29.55 21.409 35.2377 31.9084 30.1037 36.1535C30.0255 36.218 30.0693 36.3372 30.1754 36.3372H45.5676C45.6724 36.3372 45.7166 36.218 45.6397 36.1535C40.5042 31.9084 46.1919 21.409 53.0043 22.4383C54.3534 22.6429 54.7794 23.5558 54.8616 23.8347C55.3192 23.4491 55.7429 22.1072 55.5777 21.2265V21.2266ZM57.2346 11.6772C57.1123 11.2841 61.1066 11.2743 61.1066 13.7743C61.1066 15.4499 58.7174 16.2436 58.7174 17.9823C58.7174 18.7922 59.5886 19.3862 59.856 19.3862C59.2406 16.5946 61.7852 18.0555 62.4723 18.5776C61.1068 14.8234 64.1808 14.8471 63.8782 13.1258C63.6676 11.9227 60.9958 12.2862 60.0287 11.6772C58.3128 10.597 56.2829 6.39399 54.945 10.597C57.439 12.9126 55.9878 16.3205 52.8218 16.3205C52.8218 16.3205 52.804 16.8202 52.833 16.8599C56.6093 16.675 57.9257 13.8997 57.2347 11.6772H57.2346ZM13.1777 18.5776C13.865 18.0555 16.4093 16.5946 15.7954 19.3862C16.0614 19.3862 16.9326 18.7922 16.9326 17.9823C16.9326 16.2436 14.5432 15.4499 14.5432 13.7743C14.5432 11.2742 18.5377 11.2841 18.4153 11.6772C17.7256 13.8996 19.0422 16.6751 22.8183 16.8599C22.846 16.8202 22.8283 16.3205 22.8283 16.3205C19.6636 16.3205 18.2123 12.9123 20.7051 10.597C19.3672 6.39399 17.3373 10.597 15.6214 11.6772C14.6544 12.2863 11.9825 11.9227 11.7719 13.1258C11.4705 14.8471 14.5431 14.8235 13.1776 18.5776H13.1777ZM23.9001 25.5202C25.0839 24.4833 26.7849 24.507 27.7597 24.8082C27.1229 24.0231 25.6314 23.3794 25.1938 23.3013C24.8596 23.4266 23.9002 24.4113 23.9002 25.52L23.9001 25.5202ZM39.6671 2.24546L37.8249 -0.000518799L35.9829 2.24546L37.8251 4.60923L39.6673 2.24546H39.6671ZM50.1826 9.03683L48.8726 7.4406L47.5638 9.03683L48.8726 10.5969L50.1826 9.03671V9.03683ZM60.8079 55.1741L59.1473 53.4167L57.4867 55.1741L59.1473 56.7156L60.8079 55.1739V55.1741ZM28.0873 9.0366L26.7772 7.44037L25.4684 9.0366L26.7772 10.5968L28.0872 9.0366H28.0873ZM24.335 16.8597H29.2208C33.3286 16.8597 35.1771 14.3384 35.7356 12.1519H39.9154C40.4741 14.3385 42.321 16.8598 46.4303 16.8598H51.3162C51.3162 16.8598 52.1708 15.7002 52.3851 15.1261C53.1569 13.0599 52.1708 12.0962 50.7322 12.0962L48.8724 13.7817L47.0127 12.0962C45.574 12.0962 44.5881 13.0599 45.3598 15.1261C45.4581 15.3903 45.694 15.7783 45.917 16.1194C44.1833 15.8812 41.9705 14.6945 41.485 12.1519C41.485 12.1519 42.766 10.1169 43.0876 9.29339C44.2427 6.33201 42.7674 5.12139 40.6101 5.12139L37.8248 8.39562L35.0398 5.12139C32.8824 5.12139 31.4072 6.3319 32.5634 9.29339C32.8839 10.117 34.166 12.152 34.166 12.152C33.6794 14.6946 31.4666 15.8813 29.7329 16.1195C29.9573 15.7784 30.1918 15.3903 30.2902 15.1262C31.0605 13.06 30.0771 12.0963 28.6371 12.0963L26.7774 13.7818L24.9178 12.0963C23.478 12.0963 22.4944 13.06 23.2649 15.1262C23.4791 15.7003 24.3353 16.8599 24.3353 16.8599L24.335 16.8597ZM74.8486 32.0049C73.9054 32.4824 68.3728 35.0743 61.2856 34.1156C61.359 33.7775 61.4212 33.4371 61.4722 33.095C66.1891 32.5307 70.0233 31.7308 72.4669 30.3715C75.2522 28.8213 76.4701 25.1207 75.0642 22.3674C75.0278 22.298 74.927 22.2856 74.8765 22.3437C74.1062 23.2306 69.2618 28.5001 61.6299 30.1383C61.6104 29.743 61.5742 29.3487 61.5215 28.9565C65.2283 26.8543 68.8471 24.4321 70.5707 22.2173C73.1758 18.8686 72.936 14.5976 70.4573 12.4197C70.4316 12.3976 70.3976 12.3877 70.364 12.3925C70.3304 12.3973 70.3005 12.4162 70.2819 12.4446C69.4978 13.7381 62.1572 25.6029 54.0977 30.7248C53.9994 30.7877 53.9002 30.8493 53.8002 30.9097C53.5694 31.0498 53.5443 31.3499 53.741 31.5285C54.6701 32.3706 55.2476 33.5425 55.2476 34.8436C55.2476 37.1056 53.5039 38.9869 51.199 39.3949C50.0276 39.6218 48.3367 39.5561 46.7127 39.0193C46.6396 38.9956 46.564 39.0439 46.564 39.1171V46.2818C46.564 46.397 46.7394 46.4255 46.7809 46.315C47.768 43.6996 50.7234 43.1438 52.016 43.1438C52.4812 45.9393 53.312 48.2549 54.3913 49.5011C56.1487 51.5264 59.0186 51.4979 60.2631 50.0977C60.2837 50.0745 60.2925 50.0432 60.287 50.0127C60.2816 49.9823 60.2626 49.9559 60.2353 49.9413C59.5041 49.5211 55.3205 46.9526 54.4832 42.7434C54.8138 42.6293 55.1364 42.5003 55.4454 42.3476C56.7957 44.5826 58.7614 46.5731 60.3437 47.3333C63.0017 48.6083 65.4351 47.9881 66.5144 46.1217C66.5535 46.0559 66.5056 45.974 66.4261 45.9667C64.782 45.8352 59.736 44.3891 57.5875 40.8658C57.8335 40.6399 58.0743 40.4043 58.2987 40.1538C60.5467 41.8652 63.7255 43.3782 66.0014 43.6871C68.6641 44.0492 71.6814 43.1997 71.7547 40.103C71.7559 40.0409 71.7004 39.99 71.635 39.9939C70.6879 40.0508 64.4202 40.3237 59.9542 37.7602C60.1093 37.4652 60.254 37.1649 60.3879 36.8598C60.3879 36.8598 67.1362 38.4548 70.3336 37.9263C73.511 37.4018 75.3721 35.0331 75.0127 32.0865C75.0026 32.013 74.9169 31.9698 74.8488 32.0045L74.8486 32.0049ZM15.2618 36.8601C15.3961 37.1653 15.5412 37.4656 15.6967 37.7605C11.2322 40.3228 4.96693 40.0524 4.0163 39.9943C3.94947 39.9904 3.89401 40.0437 3.89519 40.1045C3.96985 43.2 6.98574 44.0494 9.64849 43.6874C11.9233 43.3786 15.1032 41.8656 17.3511 40.1542C17.5769 40.4047 17.8165 40.6402 18.0622 40.866C15.9125 44.3891 10.8679 45.8353 9.22366 45.9668C9.14426 45.9742 9.09757 46.056 9.13549 46.1218C10.2148 47.9882 12.6483 48.6084 15.3075 47.3334C16.8886 46.5732 18.8542 44.5827 20.2047 42.348C20.5147 42.5004 20.8375 42.6294 21.1666 42.7435C20.3293 46.9528 16.1459 49.5212 15.4145 49.9414C15.3875 49.9563 15.3686 49.9826 15.3633 50.013C15.3579 50.0433 15.3665 50.0745 15.3867 50.0978C16.6312 51.498 19.5023 51.5265 21.2597 49.5013C22.3393 48.2549 23.1688 45.9394 23.634 43.1441C24.9276 43.1441 27.8817 43.6999 28.869 46.3152C28.9119 46.4257 29.087 46.397 29.087 46.2818V39.1171C29.087 39.044 29.0102 38.9957 28.9371 39.0193C27.3132 39.5561 25.6224 39.622 24.4523 39.3949C22.1462 38.987 20.4025 37.1057 20.4025 34.8436C20.4025 33.5424 20.9811 32.3693 21.9091 31.5272C22.107 31.3498 22.0806 31.0496 21.851 30.9095C21.7503 30.8492 21.6502 30.7875 21.551 30.7247C13.4966 25.6054 6.15966 13.7492 5.36913 12.4469C5.33239 12.3861 5.24423 12.3737 5.18995 12.4208C2.71491 14.5998 2.47411 18.8697 5.07903 22.217C6.80265 24.4318 10.4211 26.854 14.1269 28.9563C14.0747 29.3485 14.0389 29.7427 14.0198 30.138C6.39417 28.501 1.5537 23.2399 0.775736 22.3471C0.724069 22.2864 0.620498 22.2988 0.585303 22.3682C-0.817766 25.1227 0.400083 28.8209 3.18288 30.3712C5.6264 31.7304 9.46066 32.5303 14.1775 33.0946C14.2285 33.4368 14.2907 33.7772 14.3641 34.1153C7.28436 35.0728 1.75421 32.487 0.803584 32.0057C0.732957 31.9698 0.647161 32.0145 0.638392 32.0889C0.280514 35.0356 2.14006 37.4018 5.31746 37.9263C8.51371 38.4548 15.2618 36.8598 15.2618 36.8598V36.8601ZM59.1472 58.9789L56.6885 57.0442C55.7075 57.6284 54.9863 58.5563 54.7064 59.6438C53.2275 59.8509 49.1951 58.9555 49.5871 58.3616C54.0066 52.1456 50.6262 48.4449 46.5638 48.6508V52.8254C46.5638 54.166 45.3937 55.2523 43.9525 55.2523H41.1473C39.1349 55.2523 37.8248 57.2751 37.8248 57.2751C37.8248 57.2751 36.515 55.2523 34.5026 55.2523H31.6972C30.255 55.2523 29.0874 54.166 29.0874 52.8254V48.6509C25.0249 48.4452 21.6419 52.1459 26.0626 58.3617C26.4509 58.9495 22.3064 59.8909 20.3623 59.6527C19.8504 59.1218 19.1114 58.787 18.2842 58.787C17.9326 58.7871 17.5838 58.8497 17.2541 58.9719C17.2541 58.9719 9.61472 51.7391 9.47476 51.6683L9.53781 51.522C9.97271 50.7085 9.30708 49.8217 8.88604 49.8838C9.3751 49.2972 9.39797 46.7287 6.6845 46.1346C6.7639 46.6506 6.80419 47.7036 6.80419 47.7036C6.80419 47.7036 4.71002 46.5712 3.65843 47.5483C2.73434 48.6424 4.01666 50.6266 4.01666 50.6266C4.01666 50.6266 2.94492 50.6526 2.41664 50.608C3.19342 53.2347 5.79834 53.0486 6.36194 52.5303C6.32521 52.9483 7.2673 53.5435 8.0653 53.0659L8.41583 52.8961C8.47768 52.9791 15.918 60.0086 15.918 60.0086C15.5762 60.5158 15.4136 61.1384 15.5257 61.8019C15.7023 62.8388 16.5662 63.6982 17.6694 63.9214C18.4485 64.0778 19.1811 63.9263 19.7686 63.5828L21.7381 65.4109C21.9135 65.5697 22.1505 65.6688 22.4151 65.6503C22.8968 65.618 23.2574 65.2272 23.2209 64.7797C23.2058 64.5775 23.1024 64.404 22.9599 64.2725C22.9283 64.2376 20.9539 62.4046 20.9539 62.4046C22.5827 61.2623 25.6176 60.4576 28.1368 60.4576C28.5794 60.4576 28.7873 60.0832 28.6348 59.7158C27.4937 56.9713 29.9474 54.9834 32.4855 56.6018C33.5926 57.3075 34.7173 58.6978 35.5646 61.0169C31.4 62.0253 26.1713 64.803 25.1134 67.8355C24.7061 69.0063 26.0515 70.6023 27.6855 70.9237C27.7144 70.93 27.7447 70.9246 27.7696 70.9085C27.7945 70.8924 27.8119 70.867 27.8179 70.838C28.6716 66.3112 33.5396 62.9378 36.0728 62.3648C36.2001 62.7059 36.1584 62.5956 36.2858 62.9353C33.5271 64.24 30.8515 66.992 30.0874 70.2635C29.7369 71.7617 31.4075 73.1123 32.7869 73.482C32.8562 73.5005 32.9244 73.4521 32.9282 73.3852C33.1904 69.2479 35.0174 65.7344 36.6539 64.1358C36.6987 64.4483 36.7324 64.7623 36.7549 65.0771C36.7549 65.0771 35.0792 69.7465 35.0792 73.1533C35.0792 74.7381 37.4345 75.8445 37.7825 75.9995C38.2174 75.8445 40.5715 74.7381 40.5715 73.1533C40.5715 69.7463 38.8958 65.0771 38.8958 65.0771C38.9187 64.7622 38.9528 64.4483 38.998 64.1358C40.6333 65.7344 42.4615 69.2466 42.7225 73.3838C42.7263 73.4508 42.7956 73.5005 42.8635 73.4819C44.2443 73.1124 45.9138 71.7618 45.5644 70.2637C44.7989 66.9921 42.1248 64.2402 39.3659 62.9355C39.492 62.5957 39.4504 62.706 39.5778 62.3649C42.1122 62.9379 46.9791 66.3111 47.8327 70.8379C47.8389 70.8668 47.8563 70.8921 47.8812 70.9082C47.906 70.9243 47.9362 70.9298 47.9652 70.9235C49.5979 70.6024 50.9458 69.0062 50.536 67.8356C49.4807 64.8031 44.2506 62.0254 40.0861 61.017C40.9346 58.6979 42.0591 57.3076 43.1662 56.6019C45.7031 54.9835 48.1567 56.9717 47.0156 59.7162C46.863 60.0832 47.0698 60.4576 47.5137 60.4576C50.3631 60.4576 53.8732 61.4871 55.2626 62.8674C56.1504 64.1994 57.7907 65.0514 59.6417 64.8689C61.7448 64.6632 63.4596 63.0831 63.6966 61.1299C63.9034 59.4184 63.0183 57.8818 61.6074 57.0447L59.1473 58.9795L59.1472 58.9789ZM41.0249 46.5112C41.9012 46.1865 43.2743 46.4494 43.2276 47.7142C43.2163 48.0007 43.6186 48.0007 43.6475 47.708C43.9098 45.8143 42.63 45.2685 41.291 45.4906C41.1246 44.8394 40.9885 44.2702 40.8334 43.7059C40.7099 43.2497 40.6644 42.3925 41.1928 42.3925C41.4778 42.3925 41.3631 43.1901 41.3366 43.5335C41.3126 43.8348 41.421 44.0172 41.6657 44.0259C41.8183 44.032 42.0088 43.8374 42.1222 43.7083C42.8889 42.8414 43.0666 41.4996 42.1689 40.8524C41.4176 40.309 39.5362 40.7134 39.0191 41.4872C38.9411 41.1957 38.5678 40.7146 38.3886 40.5048C38.2148 40.3004 38.1694 40.1602 38.4102 39.9804C38.5237 39.8936 38.8667 39.5526 38.8667 39.2003C38.8667 38.992 38.7053 38.6075 38.1922 38.6075C37.7874 38.6075 37.3373 38.8878 37.3373 39.5128C37.3373 39.6518 37.3713 39.8008 37.4608 39.9608C37.2048 39.9185 36.5101 39.9359 36.1533 40.0239L41.0871 53.5631C42.4993 52.866 43.5344 51.7623 43.5344 50.578C43.5344 49.5683 42.0476 49.9032 41.3253 50.6908C41.0932 49.411 40.8864 48.229 40.6608 47.0508C40.5992 46.7258 40.7643 46.6093 41.0252 46.5113L41.0249 46.5112ZM34.0486 37.3142L35.085 40.1939C34.1975 40.4048 32.7702 41.052 32.7702 41.9089C32.7702 43.0501 34.7888 43.7929 35.9564 43.7035C35.8983 43.964 35.9653 44.1959 36.1468 44.4079C35.7232 44.4079 34.9239 44.6051 34.6615 44.8878C34.0424 44.3112 33.0741 44.1016 32.6138 44.4526C32.1512 44.8061 32.1374 45.4051 32.6202 46.0822C32.9567 46.551 33.0829 47.0137 32.7047 47.5568C34.1118 47.5568 33.5934 45.7276 34.1445 45.7276C34.0727 46.0822 34.1168 46.4927 34.277 46.9479C34.3829 47.2504 34.3829 47.465 34.2014 47.7564C33.7475 48.482 33.0415 50.1488 33.1372 51.6556C32.6758 51.653 32.4412 51.5401 32.604 50.9103C32.6644 50.6756 32.5195 50.5083 32.3278 50.7973C32.116 51.1161 32.0138 51.6605 32.0138 51.8935C32.0138 53.2355 33.6124 53.5058 34.2227 53.2219C35.988 54.9301 39.4554 54.4745 40.6166 53.9015L34.5116 37.1502C34.3867 36.8341 33.9392 36.9853 34.0489 37.314L34.0486 37.3142ZM33.8367 51.1124C33.7106 50.4227 34.6702 49.1901 35.8907 48.0008C35.631 48.7758 35.7924 50.1116 36.3017 50.5717C35.4165 50.5717 34.365 50.7378 33.8368 51.1124H33.8367Z" fill="white"/>
</g>
<defs>
<clipPath id="clip0_8_8">
<rect width="76" height="76" fill="white"/>
</clipPath>
</defs>
</svg>
