<svg width="103" height="103" viewBox="0 0 103 103" fill="none" xmlns="http://www.w3.org/2000/svg">
<g clip-path="url(#clip0_21_8)">
<path fill-rule="evenodd" clip-rule="evenodd" d="M70.2047 34.5869C68.6019 33.1816 66.2966 33.2137 64.9739 33.622C65.8405 32.558 67.8583 31.6856 68.4531 31.5798C68.906 31.7495 70.2045 33.0841 70.2045 34.5867L70.2047 34.5869ZM75.3224 28.7678C74.2684 23.1291 61.1637 26.8651 54.5643 24.4701C54.4377 26.1138 56.5959 28.7477 58.6603 29.7226C55.1315 32.7849 51.9635 38.9551 51.3243 46.4933C50.687 38.9551 47.5188 32.7849 43.9902 29.7226C46.0545 28.7477 48.2144 26.1138 48.0862 24.4701C41.4868 26.8651 28.382 23.1291 27.326 28.7678C27.1039 29.9611 27.6781 31.7799 28.2985 32.3026C28.4093 31.9244 28.9887 30.6873 30.8154 30.41C40.0481 29.015 47.7564 43.2445 40.7984 48.9977C40.6924 49.0851 40.7519 49.2466 40.8956 49.2466H61.7562C61.8982 49.2466 61.9581 49.0851 61.8538 48.9977C54.8938 43.2445 62.6022 29.015 71.8348 30.41C73.6632 30.6873 74.2406 31.9244 74.3519 32.3025C74.9721 31.7799 75.5463 29.9612 75.3224 28.7676V28.7678ZM77.5679 15.8258C77.4022 15.2931 82.8156 15.2798 82.8156 18.668C82.8156 20.9389 79.5776 22.0145 79.5776 24.371C79.5776 25.4685 80.7583 26.2736 81.1206 26.2736C80.2866 22.4902 83.7352 24.4701 84.6664 25.1777C82.8158 20.0898 86.9819 20.1219 86.5718 17.789C86.2864 16.1586 82.6655 16.6512 81.3548 15.8258C79.0293 14.362 76.2782 8.66573 74.465 14.362C77.845 17.5001 75.8782 22.1187 71.5874 22.1187C71.5874 22.1187 71.5634 22.796 71.6027 22.8498C76.7206 22.5992 78.5046 18.8379 77.5681 15.8258H77.5679ZM17.8593 25.1777C18.7908 24.4701 22.2389 22.4902 21.407 26.2736C21.7674 26.2736 22.9482 25.4685 22.9482 24.371C22.9482 22.0145 19.7099 20.9389 19.7099 18.668C19.7099 15.2796 25.1235 15.2931 24.9576 15.8258C24.0229 18.8378 25.8072 22.5994 30.9248 22.8498C30.9624 22.796 30.9384 22.1187 30.9384 22.1187C26.6494 22.1187 24.6825 17.4998 28.0609 14.362C26.2477 8.66573 23.4966 14.362 21.1711 15.8258C19.8606 16.6513 16.2395 16.1586 15.9541 17.789C15.5455 20.1219 19.7098 20.09 17.8592 25.1777H17.8593ZM32.3909 34.5867C33.9953 33.1815 36.3006 33.2136 37.6217 33.6218C36.7587 32.5578 34.7373 31.6855 34.1442 31.5796C33.6913 31.7494 32.3911 33.084 32.3911 34.5866L32.3909 34.5867ZM53.7593 3.04337L51.2628 -0.000518799L48.7664 3.04337L51.2629 6.2469L53.7597 3.04337H53.7593ZM68.0107 12.2475L66.2352 10.0842L64.4615 12.2475L66.2352 14.3618L68.0107 12.2473V12.2475ZM82.4107 74.7756L80.1602 72.3939L77.9097 74.7756L80.1602 76.8647L82.4107 74.7753V74.7756ZM38.0658 12.2471L36.2902 10.0838L34.5165 12.2471L36.2902 14.3616L38.0656 12.2471H38.0658ZM32.9803 22.8495H39.602C45.1691 22.8495 47.6743 19.4325 48.4312 16.4692H54.096C54.853 19.4326 57.3562 22.8496 62.9254 22.8496H69.547C69.547 22.8496 70.7053 21.2781 70.9956 20.5C72.0416 17.6997 70.7053 16.3937 68.7555 16.3937L66.2351 18.678L63.7146 16.3937C61.7649 16.3937 60.4287 17.6997 61.4745 20.5C61.6078 20.8581 61.9274 21.384 62.2297 21.8462C59.88 21.5234 56.8811 19.9151 56.2231 16.4692C56.2231 16.4692 57.9592 13.7112 58.3951 12.5952C59.9605 8.58173 57.9612 6.94102 55.0374 6.94102L51.2626 11.3785L47.4882 6.94102C44.5644 6.94102 42.5651 8.58157 44.132 12.5952C44.5663 13.7114 46.304 16.4694 46.304 16.4694C45.6444 19.9153 42.6455 21.5235 40.2959 21.8463C40.6001 21.3841 40.9179 20.8581 41.0512 20.5002C42.0951 17.6999 40.7625 16.3939 38.8108 16.3939L36.2905 18.6781L33.7702 16.3939C31.8189 16.3939 30.4859 17.6999 31.5301 20.5002C31.8205 21.2783 32.9808 22.8498 32.9808 22.8498L32.9803 22.8495ZM101.44 43.3752C100.161 44.0224 92.6632 47.5351 83.0581 46.2358C83.1576 45.7776 83.242 45.3163 83.3111 44.8526C89.7037 44.0878 94.9001 43.0037 98.2117 41.1616C101.987 39.0606 103.637 34.0453 101.732 30.3139C101.682 30.2198 101.546 30.2031 101.477 30.2818C100.433 31.4837 93.8681 38.6254 83.5248 40.8456C83.4984 40.3098 83.4493 39.7755 83.3779 39.2439C88.4015 36.3948 93.306 33.1121 95.6419 30.1104C99.1724 25.5721 98.8475 19.7837 95.4882 16.8322C95.4533 16.8023 95.4073 16.7888 95.3618 16.7953C95.3163 16.8017 95.2757 16.8275 95.2505 16.8659C94.1878 18.6189 84.2393 34.6988 73.3167 41.6404C73.1834 41.7256 73.049 41.8092 72.9135 41.8909C72.6007 42.0809 72.5666 42.4875 72.8332 42.7296C74.0924 43.8708 74.8751 45.4592 74.8751 47.2224C74.8751 50.288 72.5119 52.8377 69.3882 53.3907C67.8006 53.6982 65.509 53.6091 63.3081 52.8815C63.209 52.8494 63.1065 52.9149 63.1065 53.0142V62.7242C63.1065 62.8803 63.3442 62.919 63.4004 62.7692C64.7383 59.2247 68.7437 58.4715 70.4954 58.4715C71.1259 62.2601 72.2519 65.3982 73.7146 67.0873C76.0963 69.832 79.9858 69.7934 81.6724 67.8957C81.7003 67.8643 81.7122 67.8219 81.7049 67.7806C81.6975 67.7393 81.6717 67.7036 81.6347 67.6837C80.6438 67.1143 74.9739 63.6334 73.8391 57.9288C74.2872 57.7741 74.7243 57.5992 75.1432 57.3924C76.9732 60.4213 79.6371 63.1189 81.7817 64.1492C85.384 65.8773 88.6818 65.0367 90.1445 62.5072C90.1975 62.4181 90.1326 62.3071 90.0249 62.2972C87.7967 62.1189 80.9581 60.1591 78.0462 55.384C78.3796 55.0779 78.706 54.7587 79.0101 54.4191C82.0568 56.7386 86.3649 58.7891 89.4493 59.2077C93.058 59.6985 97.1473 58.5471 97.2465 54.3502C97.2481 54.2661 97.173 54.1972 97.0843 54.2025C95.8008 54.2796 87.3064 54.6494 81.2538 51.1751C81.464 50.7754 81.6601 50.3684 81.8416 49.9549C81.8416 49.9549 90.9872 52.1166 95.3206 51.4003C99.6268 50.6895 102.149 47.4792 101.662 43.4858C101.648 43.3863 101.532 43.3277 101.44 43.3747L101.44 43.3752ZM20.6838 49.9554C20.8659 50.3689 21.0625 50.7759 21.2732 51.1756C15.2226 54.6482 6.73154 54.2817 5.44319 54.203C5.35261 54.1977 5.27745 54.2699 5.27906 54.3523C5.38024 58.5476 9.46756 59.6988 13.0763 59.2081C16.1592 58.7896 20.4688 56.739 23.5154 54.4196C23.8214 54.7591 24.1461 55.0784 24.479 55.3844C21.5657 60.1591 14.7289 62.119 12.5005 62.2973C12.3929 62.3073 12.3296 62.4182 12.381 62.5074C13.8438 65.0369 17.1418 65.8773 20.7457 64.1494C22.8886 63.1191 25.5525 60.4215 27.3827 57.3928C27.8028 57.5994 28.2403 57.7743 28.6863 57.9289C27.5517 63.6335 21.8819 67.1144 20.8907 67.6839C20.8541 67.7041 20.8286 67.7398 20.8213 67.7809C20.814 67.8221 20.8257 67.8643 20.8531 67.8959C22.5398 69.7936 26.4308 69.8321 28.8125 67.0874C30.2756 65.3982 31.3998 62.2602 32.0304 58.4718C33.7835 58.4718 37.7871 59.225 39.1251 62.7695C39.1833 62.9192 39.4206 62.8803 39.4206 62.7242V53.0142C39.4206 52.9151 39.3166 52.8496 39.2175 52.8815C37.0166 53.6091 34.7251 53.6984 33.1393 53.3907C30.014 52.8379 27.6508 50.2881 27.6508 47.2224C27.6508 45.459 28.435 43.869 29.6926 42.7278C29.9609 42.4874 29.925 42.0806 29.614 41.8907C29.4774 41.8089 29.3418 41.7254 29.2073 41.6402C18.2915 34.7022 8.348 18.634 7.27663 16.869C7.22684 16.7866 7.10735 16.7699 7.03379 16.8336C3.67946 19.7868 3.35312 25.5736 6.88347 30.1101C9.21943 33.1118 14.1234 36.3945 19.1458 39.2435C19.0749 39.7751 19.0265 40.3094 19.0006 40.8451C8.66583 38.6265 2.10572 31.4964 1.05137 30.2864C0.981348 30.2041 0.840981 30.2209 0.793283 30.315C-1.10825 34.0481 0.542262 39.0601 4.31368 41.1611C7.62529 43.0032 12.8217 44.0873 19.2143 44.8521C19.2834 45.3158 19.3677 45.7772 19.4671 46.2354C9.87227 47.533 2.37746 44.0287 1.08911 43.3763C0.993393 43.3277 0.877117 43.3882 0.865232 43.4891C0.380214 47.4826 2.90038 50.6895 7.2066 51.4003C11.5384 52.1166 20.6838 49.9549 20.6838 49.9549V49.9554ZM80.1601 79.9321L76.8279 77.3101C75.4984 78.1018 74.521 79.3594 74.1417 80.8332C72.1373 81.1139 66.6724 79.9004 67.2037 79.0955C73.1931 70.6713 68.6118 65.6558 63.1062 65.9348V71.5925C63.1062 73.4094 61.5204 74.8816 59.5672 74.8816H55.7654C53.0381 74.8816 51.2626 77.6231 51.2626 77.6231C51.2626 77.6231 49.4875 74.8816 46.7601 74.8816H42.958C41.0035 74.8816 39.4211 73.4094 39.4211 71.5925V65.9349C33.9154 65.6561 29.3305 70.6716 35.3217 79.0956C35.848 79.8922 30.2311 81.1681 27.5963 80.8452C26.9025 80.1257 25.901 79.672 24.78 79.672C24.3035 79.6722 23.8307 79.757 23.3839 79.9226C23.3839 79.9226 13.0305 70.1202 12.8408 70.0244L12.9263 69.826C13.5157 68.7235 12.6136 67.5217 12.043 67.6059C12.7058 66.8109 12.7368 63.3298 9.05931 62.5247C9.16691 63.224 9.22152 64.6511 9.22152 64.6511C9.22152 64.6511 6.38336 63.1164 4.95817 64.4407C3.7058 65.9234 5.44367 68.6125 5.44367 68.6125C5.44367 68.6125 3.99119 68.6478 3.27523 68.5873C4.32797 72.1472 7.85833 71.8951 8.62215 71.1926C8.57236 71.759 9.84915 72.5657 10.9306 71.9185L11.4057 71.6884C11.4895 71.8008 21.5731 81.3277 21.5731 81.3277C21.1099 82.0151 20.8896 82.8589 21.0415 83.7581C21.2808 85.1633 22.4516 86.328 23.9468 86.6304C25.0026 86.8424 25.9954 86.6372 26.7917 86.1716L29.4609 88.6492C29.6986 88.8644 30.0198 88.9987 30.3784 88.9736C31.0313 88.9298 31.52 88.4003 31.4705 87.7937C31.45 87.5197 31.3099 87.2846 31.1167 87.1063C31.074 87.0591 28.398 84.5749 28.398 84.5749C30.6055 83.0267 34.7187 81.9362 38.1328 81.9362C38.7326 81.9362 39.0145 81.4287 38.8078 80.9308C37.2612 77.2113 40.5866 74.5172 44.0264 76.7105C45.5269 77.6669 47.0512 79.5511 48.1995 82.6941C42.5553 84.0608 35.469 87.8253 34.0353 91.9351C33.4833 93.5219 35.3066 95.6849 37.5212 96.1204C37.5604 96.1291 37.6014 96.1217 37.6351 96.0998C37.6689 96.078 37.6924 96.0436 37.7006 96.0043C38.8576 89.8693 45.4551 85.2974 48.8881 84.5209C49.0608 84.9831 49.0042 84.8336 49.1769 85.2941C45.4381 87.0623 41.812 90.792 40.7764 95.2257C40.3014 97.2562 42.5655 99.0866 44.4349 99.5876C44.5289 99.6127 44.6212 99.5472 44.6264 99.4564C44.9818 93.8493 47.4578 89.0877 49.6757 86.9211C49.7365 87.3446 49.7821 87.7701 49.8125 88.1968C49.8125 88.1968 47.5416 94.525 47.5416 99.1421C47.5416 101.29 50.7336 102.789 51.2053 102.999C51.7947 102.789 54.9851 101.29 54.9851 99.1421C54.9851 94.5248 52.7141 88.1968 52.7141 88.1968C52.7451 87.7701 52.7913 87.3446 52.8526 86.9211C55.0689 89.0877 57.5465 93.8476 57.9003 99.4545C57.9054 99.5454 57.9994 99.6127 58.0914 99.5875C59.9627 99.0867 62.2253 97.2564 61.7519 95.226C60.7144 90.7921 57.0902 87.0626 53.3512 85.2944C53.5221 84.8338 53.4658 84.9833 53.6384 84.5211C57.0732 85.2976 63.6691 89.8691 64.8259 96.0041C64.8343 96.0434 64.8579 96.0777 64.8916 96.0995C64.9253 96.1212 64.9663 96.1287 65.0055 96.1203C67.2183 95.685 69.045 93.5217 68.4896 91.9353C67.0594 87.8255 59.9713 84.061 54.3272 82.6943C55.4771 79.5513 57.0013 77.6671 58.5016 76.7107C61.9398 74.5174 65.265 77.2118 63.7186 80.9313C63.5117 81.4287 63.792 81.9362 64.3936 81.9362C68.2553 81.9362 73.0125 83.3314 74.8954 85.202C76.0986 87.0072 78.3216 88.1619 80.8303 87.9146C83.6805 87.6358 86.0045 85.4943 86.3257 82.8473C86.606 80.5277 85.4064 78.4452 83.4943 77.3107L80.1602 79.9329L80.1601 79.9321ZM55.5995 63.0351C56.7872 62.5951 58.6481 62.9513 58.5848 64.6656C58.5695 65.0537 59.1148 65.0537 59.154 64.657C59.5094 62.0906 57.7749 61.3509 55.9602 61.6519C55.7347 60.7693 55.5502 59.998 55.34 59.2332C55.1726 58.6149 55.111 57.4532 55.8271 57.4532C56.2133 57.4532 56.0579 58.5341 56.0221 58.9995C55.9895 59.4079 56.1364 59.6551 56.4681 59.6668C56.6749 59.6752 56.933 59.4115 57.0867 59.2364C58.1258 58.0616 58.3667 56.2431 57.15 55.3659C56.1317 54.6295 53.582 55.1775 52.8812 56.2262C52.7755 55.8312 52.2696 55.1791 52.0268 54.8949C51.7912 54.6178 51.7297 54.4278 52.056 54.1842C52.2099 54.0665 52.6746 53.6044 52.6746 53.1269C52.6746 52.8446 52.4559 52.3234 51.7605 52.3234C51.2119 52.3234 50.6019 52.7034 50.6019 53.5505C50.6019 53.7388 50.648 53.9407 50.7692 54.1575C50.4223 54.1002 49.4809 54.1238 48.9973 54.2431L55.6838 72.5922C57.5977 71.6476 59.0006 70.1517 59.0006 68.5467C59.0006 67.1783 56.9857 67.6322 56.0066 68.6995C55.6922 66.965 55.4119 65.3632 55.1061 63.7663C55.0226 63.326 55.2464 63.1681 55.6 63.0353L55.5995 63.0351ZM46.1449 50.5708L47.5495 54.4734C46.3466 54.7593 44.4123 55.6365 44.4123 56.7978C44.4123 58.3444 47.148 59.3511 48.7304 59.23C48.6517 59.583 48.7425 59.8973 48.9885 60.1846C48.4143 60.1846 47.3311 60.4518 46.9755 60.835C46.1365 60.0535 44.8241 59.7694 44.2003 60.2451C43.5733 60.7242 43.5547 61.5361 44.209 62.4537C44.6651 63.0891 44.8361 63.7161 44.3235 64.4521C46.2305 64.4521 45.528 61.9731 46.2748 61.9731C46.1775 62.4537 46.2372 63.0101 46.4544 63.6269C46.5979 64.037 46.5979 64.3278 46.3519 64.7227C45.7368 65.7061 44.7799 67.965 44.9097 70.0072C44.2843 70.0036 43.9665 69.8506 44.187 68.997C44.2689 68.679 44.0725 68.4522 43.8128 68.8439C43.5256 69.2759 43.3872 70.0138 43.3872 70.3295C43.3872 72.1483 45.5537 72.5146 46.3808 72.1299C48.7733 74.4449 53.4725 73.8274 55.0462 73.0509L46.7724 50.3485C46.6031 49.92 45.9966 50.125 46.1452 50.5705L46.1449 50.5708ZM45.8577 69.271C45.6868 68.3363 46.9872 66.6657 48.6414 65.0539C48.2894 66.1042 48.5081 67.9145 49.1984 68.5381C47.9987 68.5381 46.5737 68.7633 45.8579 69.271H45.8577Z" fill="#0768DE"/>
</g>
<defs>
<clipPath id="clip0_21_8">
<rect width="103" height="103" fill="white"/>
</clipPath>
</defs>
</svg>
