<svg width="81" height="81" viewBox="0 0 81 81" fill="none" xmlns="http://www.w3.org/2000/svg">
<g clip-path="url(#clip0_24_232)">
<path fill-rule="evenodd" clip-rule="evenodd" d="M55.2096 27.1993C53.9491 26.0942 52.1362 26.1194 51.096 26.4405C51.7775 25.6038 53.3644 24.9177 53.8322 24.8345C54.1883 24.968 55.2095 26.0175 55.2095 27.1992L55.2096 27.1993ZM59.2342 22.6231C58.4053 18.1888 48.0997 21.1268 42.9099 19.2434C42.8103 20.536 44.5075 22.6073 46.131 23.374C43.3559 25.7822 40.8646 30.6345 40.3619 36.5626C39.8608 30.6345 37.3693 25.7822 34.5944 23.374C36.2177 22.6073 37.9163 20.536 37.8155 19.2434C32.6256 21.1268 22.3199 18.1888 21.4895 22.6231C21.3148 23.5615 21.7663 24.9918 22.2542 25.4029C22.3414 25.1055 22.7971 24.1326 24.2336 23.9145C31.4942 22.8175 37.5561 34.0077 32.0843 38.5321C32.0009 38.6008 32.0477 38.7278 32.1607 38.7278H48.5656C48.6773 38.7278 48.7244 38.6008 48.6424 38.5321C43.169 34.0077 49.231 22.8175 56.4915 23.9145C57.9294 24.1326 58.3835 25.1055 58.471 25.4028C58.9588 24.9918 59.4103 23.5616 59.2342 22.623V22.6231ZM61.0001 12.4455C60.8698 12.0265 65.1269 12.016 65.1269 14.6806C65.1269 16.4664 62.5805 17.3122 62.5805 19.1654C62.5805 20.0286 63.509 20.6617 63.794 20.6617C63.1381 17.6863 65.8501 19.2434 66.5824 19.7998C65.1271 15.7987 68.4034 15.8239 68.0808 13.9893C67.8564 12.7071 65.0089 13.0945 63.9781 12.4455C62.1493 11.2942 59.9858 6.81468 58.5599 11.2942C61.218 13.7621 59.6713 17.3942 56.297 17.3942C56.297 17.3942 56.2781 17.9268 56.309 17.9691C60.3338 17.7721 61.7367 14.8142 61.0003 12.4455H61.0001ZM14.0448 19.7998C14.7773 19.2434 17.489 17.6863 16.8348 20.6617C17.1182 20.6617 18.0467 20.0286 18.0467 19.1654C18.0467 17.3122 15.5002 16.4664 15.5002 14.6806C15.5002 12.0159 19.7574 12.0265 19.627 12.4455C18.8919 14.8141 20.2951 17.7722 24.3196 17.9691C24.3491 17.9268 24.3303 17.3942 24.3303 17.3942C20.9574 17.3942 19.4106 13.7619 22.0674 11.2942C20.6415 6.81468 18.478 11.2942 16.6492 12.4455C15.6186 13.0946 12.771 12.7071 12.5465 13.9893C12.2252 15.8239 15.5 15.7988 14.0447 19.7998H14.0448ZM25.4726 27.1992C26.7343 26.094 28.5472 26.1193 29.5861 26.4404C28.9074 25.6036 27.3178 24.9176 26.8514 24.8343C26.4952 24.9678 25.4727 26.0174 25.4727 27.199L25.4726 27.1992ZM42.2769 2.39322L40.3135 -0.000518799L38.3504 2.39322L40.3137 4.9125L42.2771 2.39322H42.2769ZM53.4842 9.6314L52.088 7.93015L50.6931 9.6314L52.088 11.2941L53.4842 9.63127V9.6314ZM64.8085 58.804L63.0387 56.931L61.2689 58.804L63.0387 60.4469L64.8085 58.8038V58.804ZM29.9353 9.63114L28.539 7.9299L27.1441 9.63114L28.539 11.294L29.9352 9.63114H29.9353ZM25.9361 17.9689H31.1434C35.5214 17.9689 37.4915 15.2817 38.0868 12.9514H42.5416C43.1369 15.2819 45.1054 17.969 49.4851 17.969H54.6924C54.6924 17.969 55.6033 16.7332 55.8316 16.1213C56.6542 13.9191 55.6033 12.892 54.07 12.892L52.0879 14.6884L50.1057 12.892C48.5725 12.892 47.5217 13.9191 48.3441 16.1213C48.4489 16.4029 48.7003 16.8164 48.938 17.1799C47.0902 16.926 44.7318 15.6613 44.2144 12.9514C44.2144 12.9514 45.5797 10.7825 45.9225 9.90483C47.1535 6.74863 45.5812 5.45836 43.2819 5.45836L40.3134 8.94799L37.3451 5.45836C35.0459 5.45836 33.4736 6.7485 34.7059 9.90483C35.0474 10.7826 36.4139 12.9515 36.4139 12.9515C35.8952 15.6614 33.5369 16.9262 31.6891 17.18C31.9283 16.8165 32.1783 16.4029 32.2831 16.1214C33.104 13.9192 32.056 12.8922 30.5212 12.8922L28.5392 14.6885L26.5572 12.8922C25.0227 12.8922 23.9744 13.9192 24.7956 16.1214C25.024 16.7333 25.9365 17.9691 25.9365 17.9691L25.9361 17.9689ZM79.773 34.1105C78.7677 34.6195 72.8712 37.3819 65.3176 36.3601C65.3959 35.9998 65.4622 35.637 65.5166 35.2723C70.5438 34.6709 74.6303 33.8183 77.2346 32.3697C80.2031 30.7175 81.5012 26.7734 80.0028 23.839C79.964 23.765 79.8565 23.7518 79.8027 23.8137C78.9818 24.7589 73.8187 30.3752 65.6847 32.1211C65.6638 31.6999 65.6253 31.2796 65.5691 30.8616C69.5197 28.621 73.3766 26.0395 75.2137 23.679C77.9901 20.11 77.7346 15.558 75.0928 13.2368C75.0653 13.2133 75.0291 13.2027 74.9933 13.2078C74.9575 13.2129 74.9257 13.2331 74.9059 13.2634C74.0701 14.6419 66.2466 27.2873 57.6569 32.7462C57.5521 32.8133 57.4464 32.8789 57.3399 32.9432C57.0938 33.0926 57.0671 33.4124 57.2767 33.6028C58.2669 34.5002 58.8825 35.7493 58.8825 37.136C58.8825 39.5467 57.024 41.5519 54.5675 41.9867C53.319 42.2286 51.5169 42.1585 49.7861 41.5863C49.7081 41.5611 49.6276 41.6126 49.6276 41.6907V49.3267C49.6276 49.4494 49.8145 49.4799 49.8587 49.362C50.9108 46.5746 54.0606 45.9823 55.4382 45.9823C55.934 48.9617 56.8195 51.4296 57.9698 52.7578C59.8428 54.9163 62.9016 54.886 64.2279 53.3936C64.2498 53.3689 64.2592 53.3356 64.2534 53.3031C64.2477 53.2706 64.2273 53.2425 64.1983 53.2269C63.419 52.7791 58.9601 50.0417 58.0677 45.5555C58.4201 45.4339 58.7639 45.2964 59.0933 45.1337C60.5324 47.5157 62.6274 49.6371 64.3138 50.4473C67.1467 51.8063 69.7401 51.1453 70.8904 49.1561C70.9321 49.086 70.8811 48.9987 70.7964 48.9909C69.0441 48.8507 63.6662 47.3094 61.3762 43.5543C61.6384 43.3136 61.8951 43.0625 62.1343 42.7955C64.5302 44.6195 67.9181 46.2321 70.3437 46.5612C73.1816 46.9472 76.3974 46.0418 76.4755 42.7413C76.4768 42.6752 76.4177 42.621 76.3479 42.6252C75.3386 42.6858 68.6585 42.9766 63.8987 40.2444C64.064 39.9301 64.2182 39.61 64.3609 39.2848C64.3609 39.2848 71.5531 40.9848 74.9609 40.4215C78.3474 39.8625 80.3309 37.3379 79.9478 34.1975C79.9371 34.1192 79.8458 34.0731 79.7732 34.1101L79.773 34.1105ZM16.266 39.2852C16.4092 39.6104 16.5638 39.9305 16.7295 40.2448C11.9712 42.9756 5.29383 42.6874 4.28066 42.6255C4.20943 42.6214 4.15032 42.6782 4.15159 42.743C4.23116 46.0422 7.44546 46.9475 10.2834 46.5616C12.7078 46.2325 16.0969 44.6199 18.4928 42.7959C18.7334 43.0629 18.9888 43.314 19.2506 43.5546C16.9595 47.3094 11.583 48.8508 9.83061 48.991C9.74599 48.9988 9.69623 49.0861 9.73664 49.1562C10.887 51.1454 13.4805 51.8063 16.3147 50.4475C17.9999 49.6372 20.0948 47.5158 21.5341 45.1341C21.8645 45.2965 22.2085 45.434 22.5592 45.5557C21.6669 50.0418 17.2082 52.7792 16.4287 53.227C16.3999 53.2429 16.3799 53.271 16.3741 53.3033C16.3684 53.3357 16.3776 53.3689 16.3991 53.3937C17.7255 54.8861 20.7855 54.9164 22.6585 52.758C23.8091 51.4296 24.6932 48.9618 25.189 45.9825C26.5677 45.9825 29.7162 46.5749 30.7684 49.3623C30.8141 49.48 31.0008 49.4494 31.0008 49.3267V41.6907C31.0008 41.6127 30.9189 41.5612 30.841 41.5863C29.1102 42.1585 27.3082 42.2287 26.0611 41.9867C23.6033 41.552 21.7449 39.5469 21.7449 37.136C21.7449 35.7492 22.3616 34.4988 23.3506 33.6014C23.5615 33.4123 23.5334 33.0924 23.2887 32.9431C23.1813 32.8788 23.0747 32.8131 22.9689 32.7461C14.3847 27.29 6.56503 14.6538 5.72249 13.2658C5.68334 13.201 5.58937 13.1878 5.53153 13.238C2.89365 15.5604 2.63701 20.1112 5.41331 23.6787C7.25032 26.0392 11.1069 28.6208 15.0565 30.8613C15.0007 31.2793 14.9627 31.6995 14.9423 32.1208C6.81497 30.3761 1.65605 24.7689 0.826902 23.8174C0.771835 23.7526 0.66145 23.7659 0.62394 23.8399C-0.871436 26.7756 0.426535 30.7171 3.39241 32.3693C5.99668 33.818 10.0832 34.6705 15.1104 35.2719C15.1647 35.6366 15.231 35.9994 15.3092 36.3597C7.76373 37.3802 1.86975 34.6244 0.856582 34.1114C0.781308 34.0731 0.689868 34.1207 0.680521 34.2C0.2991 37.3406 2.28098 39.8625 5.66742 40.4215C9.07395 40.9848 16.266 39.2848 16.266 39.2848V39.2852ZM63.0386 62.8591L60.4181 60.7971C59.3726 61.4198 58.604 62.4087 58.3057 63.5677C56.7295 63.7885 52.4318 62.8342 52.8496 62.2012C57.5598 55.5763 53.957 51.6321 49.6273 51.8515V56.3008C49.6273 57.7296 48.3802 58.8874 46.8442 58.8874H43.8545C41.7097 58.8874 40.3134 61.0433 40.3134 61.0433C40.3134 61.0433 38.9174 58.8874 36.7726 58.8874H33.7826C32.2456 58.8874 31.0012 57.7296 31.0012 56.3008V51.8516C26.6714 51.6324 23.0658 55.5766 27.7774 62.2013C28.1913 62.8278 23.7741 63.8311 21.702 63.5772C21.1564 63.0114 20.3688 62.6546 19.4873 62.6546C19.1125 62.6547 18.7408 62.7214 18.3894 62.8516C18.3894 62.8516 10.2474 55.143 10.0982 55.0676L10.1654 54.9116C10.6289 54.0446 9.91952 53.0995 9.47078 53.1657C9.99202 52.5405 10.0164 49.803 7.12441 49.1698C7.20903 49.7197 7.25197 50.842 7.25197 50.842C7.25197 50.842 5.02002 49.6351 3.89924 50.6766C2.91437 51.8426 4.28104 53.9573 4.28104 53.9573C4.28104 53.9573 3.1388 53.9851 2.57576 53.9375C3.40365 56.737 6.17994 56.5387 6.78062 55.9863C6.74147 56.4317 7.74554 57.0661 8.59604 56.5572L8.96963 56.3762C9.03556 56.4646 16.9653 63.9566 16.9653 63.9566C16.6011 64.4972 16.4278 65.1607 16.5473 65.8679C16.7355 66.973 17.6562 67.8889 18.832 68.1267C19.6623 68.2935 20.4431 68.132 21.0693 67.7659L23.1684 69.7143C23.3553 69.8836 23.6079 69.9891 23.8899 69.9694C24.4033 69.935 24.7876 69.5186 24.7487 69.0415C24.7326 68.8261 24.6225 68.6412 24.4705 68.501C24.4369 68.4638 22.3325 66.5102 22.3325 66.5102C24.0685 65.2927 27.3031 64.4352 29.988 64.4352C30.4597 64.4352 30.6814 64.0361 30.5188 63.6445C29.3026 60.7195 31.9177 58.6008 34.6228 60.3257C35.8028 61.0778 37.0015 62.5595 37.9045 65.0312C33.4659 66.106 27.8932 69.0664 26.7657 72.2984C26.3317 73.5462 27.7655 75.2472 29.5071 75.5897C29.5379 75.5965 29.5702 75.5907 29.5967 75.5735C29.6232 75.5564 29.6417 75.5293 29.6481 75.4984C30.558 70.6738 35.7463 67.0785 38.4461 66.4678C38.5819 66.8313 38.5374 66.7137 38.6732 67.0758C35.7329 68.4664 32.8814 71.3994 32.067 74.8861C31.6934 76.4829 33.474 77.9223 34.9441 78.3164C35.018 78.3361 35.0906 78.2846 35.0946 78.2132C35.3741 73.8037 37.3213 70.0591 39.0655 68.3553C39.1132 68.6884 39.1491 69.023 39.1731 69.3585C39.1731 69.3585 37.3872 74.3351 37.3872 77.966C37.3872 79.6552 39.8974 80.8343 40.2683 80.9995C40.7318 80.8343 43.2408 79.6552 43.2408 77.966C43.2408 74.335 41.4549 69.3585 41.4549 69.3585C41.4793 69.0229 41.5156 68.6883 41.5638 68.3553C43.3067 70.0591 45.2551 73.8024 45.5333 78.2117C45.5374 78.2832 45.6113 78.3361 45.6836 78.3163C47.1553 77.9225 48.9346 76.483 48.5622 74.8864C47.7463 71.3995 44.8963 68.4666 41.9559 67.0761C42.0903 66.7138 42.046 66.8314 42.1818 66.4679C44.8829 67.0786 50.07 70.6737 50.9797 75.4983C50.9863 75.5291 51.0049 75.5561 51.0314 75.5732C51.0579 75.5904 51.0901 75.5963 51.1209 75.5896C52.8611 75.2473 54.2976 73.5461 53.8608 72.2985C52.7362 69.0665 47.162 66.1061 42.7234 65.0313C43.6277 62.5596 44.8263 61.0779 46.0062 60.3258C48.71 58.6009 51.325 60.7198 50.1089 63.6449C49.9462 64.0361 50.1666 64.4352 50.6397 64.4352C53.6766 64.4352 57.4177 65.5323 58.8984 67.0034C59.8446 68.423 61.5928 69.3311 63.5656 69.1366C65.8071 68.9174 67.6347 67.2333 67.8873 65.1516C68.1077 63.3275 67.1644 61.6898 65.6607 60.7976L63.0387 62.8597L63.0386 62.8591ZM43.724 49.5712C44.658 49.2251 46.1214 49.5053 46.0716 50.8534C46.0596 51.1586 46.4884 51.1586 46.5192 50.8467C46.7987 48.8284 45.4347 48.2467 44.0077 48.4834C43.8303 47.7894 43.6852 47.1828 43.5199 46.5813C43.3883 46.0951 43.3398 45.1816 43.903 45.1816C44.2067 45.1816 44.0844 46.0315 44.0563 46.3976C44.0306 46.7187 44.1462 46.9131 44.407 46.9223C44.5697 46.9289 44.7726 46.7215 44.8935 46.5839C45.7107 45.66 45.9001 44.2299 44.9433 43.5401C44.1425 42.961 42.1374 43.3919 41.5863 44.2166C41.5032 43.9059 41.1053 43.3932 40.9143 43.1696C40.7291 42.9518 40.6807 42.8023 40.9373 42.6108C41.0583 42.5182 41.4238 42.1548 41.4238 41.7793C41.4238 41.5573 41.2518 41.1475 40.7049 41.1475C40.2735 41.1475 39.7938 41.4463 39.7938 42.1124C39.7938 42.2605 39.8301 42.4193 39.9254 42.5898C39.6526 42.5447 38.9123 42.5633 38.532 42.6571L43.7903 57.087C45.2954 56.3441 46.3986 55.1677 46.3986 53.9055C46.3986 52.8294 44.8141 53.1864 44.0442 54.0257C43.7969 52.6617 43.5765 51.402 43.336 50.1462C43.2703 49.7999 43.4463 49.6758 43.7244 49.5713L43.724 49.5712ZM36.2888 39.7692L37.3934 42.8382C36.4474 43.063 34.9263 43.7529 34.9263 44.6661C34.9263 45.8824 37.0776 46.674 38.3221 46.5788C38.2602 46.8564 38.3315 47.1036 38.525 47.3295C38.0735 47.3295 37.2216 47.5397 36.942 47.841C36.2822 47.2265 35.2501 47.003 34.7596 47.3771C34.2665 47.7539 34.2518 48.3923 34.7664 49.114C35.1251 49.6136 35.2596 50.1067 34.8564 50.6855C36.3561 50.6855 35.8037 48.736 36.391 48.736C36.3144 49.114 36.3614 49.5515 36.5322 50.0366C36.6451 50.359 36.6451 50.5878 36.4516 50.8983C35.9679 51.6717 35.2154 53.4481 35.3174 55.0541C34.8256 55.0513 34.5757 54.9309 34.7491 54.2597C34.8135 54.0096 34.659 53.8312 34.4548 54.1393C34.229 54.479 34.1201 55.0592 34.1201 55.3076C34.1201 56.7379 35.8239 57.026 36.4743 56.7234C38.3558 58.544 42.0513 58.0583 43.2889 57.4477L36.7822 39.5944C36.6491 39.2574 36.1722 39.4186 36.289 39.7689L36.2888 39.7692ZM36.063 54.4751C35.9286 53.7401 36.9512 52.4263 38.2521 51.1588C37.9753 51.9848 38.1473 53.4084 38.6901 53.8988C37.7467 53.8988 36.626 54.0759 36.0631 54.4751H36.063Z" fill="black"/>
</g>
<defs>
<clipPath id="clip0_24_232">
<rect width="81" height="81" fill="white"/>
</clipPath>
</defs>
</svg>
