<svg width="54" height="54" viewBox="0 0 54 54" fill="none" xmlns="http://www.w3.org/2000/svg">
<path d="M27 52.1345C40.8815 52.1345 52.1346 40.8814 52.1346 27C52.1346 13.1186 40.8815 1.86545 27 1.86545C13.1186 1.86545 1.86548 13.1186 1.86548 27C1.86548 40.8814 13.1186 52.1345 27 52.1345Z" fill="white"/>
<path d="M15.8957 17.7905C15.8957 17.7905 19.8819 22.2971 26.4797 23.0334C26.4797 23.0334 26.1655 19.2633 29.5135 17.1622C29.5135 17.1622 32.9695 14.8549 35.5909 18.2127C35.5909 18.2127 38.1044 17.6923 39.0469 17.064C39.0469 17.064 38.3106 18.4876 37.0539 19.7149L39.8815 19.1553L37.26 21.9829C37.26 21.9829 38.3106 31.5163 27.8837 36.5433C27.8837 36.5433 19.764 39.4789 14.1088 35.6007C14.1088 35.6007 21.0208 34.5502 21.7571 32.9793C21.7571 32.9793 18.0851 32.5571 17.1426 29.4153L19.1357 29.3073C19.1357 29.3073 15.6797 28.9931 15.2575 24.0643L17.5648 24.3785C17.5746 24.3883 13.9026 23.3476 15.8957 17.7905Z" fill="#0768DE"/>
</svg>
