<svg width="54" height="54" viewBox="0 0 54 54" fill="none" xmlns="http://www.w3.org/2000/svg">
<path d="M27 2.07361C13.2332 2.07361 2.07361 13.2332 2.07361 27C2.07361 40.7668 13.2332 51.9264 27 51.9264C40.7668 51.9264 51.9264 40.7668 51.9264 27C51.9264 13.2332 40.7668 2.07361 27 2.07361ZM40.3963 36.4592C39.3325 37.1245 35.0098 37.3226 33.9633 36.5623C33.3893 36.1454 32.8644 35.6238 32.366 35.127C32.0171 34.7798 31.6213 34.6113 31.3216 34.2344C31.077 33.926 30.9091 33.5621 30.6515 33.2575C30.2168 32.7467 29.5477 32.312 29.0185 32.9362C28.2215 33.8753 29.1438 35.7194 28.0811 36.4208C27.7247 36.6563 27.365 36.7243 26.9195 36.6908L25.933 36.7357C25.3535 36.747 24.4355 36.7524 23.7762 36.6336C23.0407 36.5008 22.4332 36.099 21.7679 35.8042C20.5054 35.2442 19.3028 34.4812 18.3875 33.4244C15.8965 30.5462 12.5507 26.588 11.2509 22.9694C10.9836 22.2259 10.2773 20.7533 10.9469 20.1155C11.8573 19.454 16.3258 19.2677 17.023 20.2905C17.3059 20.7063 17.4847 21.3143 17.685 21.7858C17.9345 22.3733 18.0695 22.9268 18.4594 23.4468C18.8044 23.908 19.0588 24.3718 19.3255 24.8773C19.6252 25.4448 19.9082 25.9891 20.2727 26.5113C20.52 26.8666 21.1739 27.5735 21.587 27.6259C22.5958 27.7549 22.5331 25.3039 22.4581 24.7055C22.3862 24.1288 22.3679 23.517 22.3868 22.9322C22.403 22.4332 22.4478 21.7301 22.1524 21.323C21.6707 20.6588 20.5978 21.1556 20.5141 20.263C20.6912 20.0097 20.6539 19.7851 21.8371 19.3952C22.7691 19.089 23.3712 19.0987 23.9857 19.1479C25.2385 19.2483 26.5669 18.9092 27.7765 19.3153C28.9321 19.7046 28.7534 21.3467 28.7145 22.3306C28.6621 23.6736 28.7183 24.9847 28.7145 26.3482C28.7129 26.9687 28.688 27.5729 29.4451 27.5222C30.1547 27.4752 30.227 26.878 30.5656 26.3855C31.0365 25.6986 31.469 25.002 31.9486 24.3178C32.5949 23.3928 32.7904 22.3533 33.399 21.4056C33.6166 21.067 33.804 20.3456 34.1393 20.0777C34.3931 19.8742 34.8754 19.9805 35.1826 19.9805H35.9132C36.4721 19.9805 37.0424 19.9762 37.617 19.9962C38.4442 20.0248 39.3709 19.8347 40.1911 19.9508C43.7308 20.4503 35.7421 28.0174 36.1579 29.3684C36.4451 30.3016 38.2676 31.3443 38.9254 32.1084C39.7985 33.1263 42.4867 35.1497 40.3963 36.4592Z" fill="white"/>
</svg>
